<svg id="main-logo" xmlns="http://www.w3.org/2000/svg" width="251.005" height="258.149" viewBox="0 0 251.005 258.149">
  <g id="Group_15" data-name="Group 15">
    <path id="Path_31" data-name="Path 31" d="M728.952,681.57c5.61-28.269,25.581-52.545,51.516-64.784,34.522-16.557,77.13-10.854,105.2,15.459a83.958,83.958,0,0,1,8.788,9.564c-2.425-2.14-4.887-4.2-7.457-6.143A105.518,105.518,0,0,0,850.323,617.6a100.331,100.331,0,0,0-84.494,15.5c-.383.253-.886.66-1.254.932-1.456,1.068-3.506,2.719-4.913,3.874-.728.664-2.821,2.43-3.51,3.126-1.06,1-2.379,2.216-3.382,3.276-1.461,1.46-2.918,3.058-4.288,4.6l-2.043,2.4-1.958,2.477-.492.619a108.509,108.509,0,0,0-9.745,15.437c-.761,1.392-1.419,2.894-2.134,4.308-.483,1.048-.847,1.933-1.311,2.936-.651,1.454-1.224,3-1.848,4.477Z" transform="translate(-684.928 -596.387)" fill="#b8b8ff"/>
    <path id="Path_32" data-name="Path 32" d="M672.258,726.553C662.1,707.1,658.9,684.266,662.231,662.633a109.834,109.834,0,0,1,51.2-76.547c18.451-11.267,40.522-16.93,62.035-15.143-2.281.214-4.605.428-6.861.751-3.93.509-7.943,1.228-11.8,2.11a116.959,116.959,0,0,0-76.122,56.314c-16.647,29.36-19.061,64.575-8.422,96.436Z" transform="translate(-637.376 -570.618)" fill="#b8b8ff"/>
    <path id="Path_33" data-name="Path 33" d="M741.372,906.892c-44.163,2.912-86.779-20.239-110.1-57.586-26.922-42.586-25.461-98.971,5.274-138.975-.526.944-1.546,2.794-2.081,3.727-1.319,2.441-2.626,5.083-3.819,7.6C611.978,761.2,614,808.414,637.228,845.587c22.5,36.345,61.569,58.73,104.145,61.306Z" transform="translate(-603.282 -668.333)" fill="#b8b8ff"/>
    <path id="Path_34" data-name="Path 34" d="M833.505,1112.2c-35.707,51.972-103.215,71.974-162.1,50.607-.938-.339-5.119-1.958-5.941-2.324l-4.682-2.028-4.594-2.219c-1.675-.784-3.979-2.141-5.628-2.994-1.7-.951-3.8-2.251-5.487-3.238a140.259,140.259,0,0,1-49.038-52.049l-1.171-2.234-.585-1.116c-.83-1.522-2.009-4.277-2.714-5.682-.683-1.513-1.318-3.152-1.956-4.635-.646-1.463-1.233-3.239-1.783-4.7-.6-1.535-1.128-3.225-1.608-4.752l-.753-2.39-.186-.6-.163-.6-.324-1.21-.639-2.419-.319-1.208c-.452-1.849-.927-4.259-1.332-6.1l.8,2.364.783,2.364c.135.392.249.79.4,1.177.6,1.564,1.389,3.674,1.971,5.234.6,1.392,1.565,3.746,2.158,5.147.542,1.219,1.5,3.249,2.079,4.495a148.592,148.592,0,0,0,38.862,50.01c1.43,1.174,3.317,2.638,4.767,3.8l3.931,2.885c3.122,2.215,6.951,4.674,10.2,6.644l4.236,2.4a144.46,144.46,0,0,0,120,8.262,147.351,147.351,0,0,0,27.323-13.744,155.435,155.435,0,0,0,33.492-29.15Z" transform="translate(-582.5 -913.107)" fill="#b8b8ff"/>
  </g>
  <g id="Group_16" data-name="Group 16" transform="translate(66.853 85.535)">
    <path id="Path_35" data-name="Path 35" d="M1055.455,855.167V922A218.361,218.361,0,0,1,1032.58,902.6q-1.244-1.2-2.459-2.4V855.167Z" transform="translate(-962.417 -855.166)" fill="#3874ff"/>
    <path id="Path_36" data-name="Path 36" d="M975.635,939.611c-23.9,13.3-45.721,16.255-65.184,12.871a90.5,90.5,0,0,1-12.517-3.115c-27.163-8.82-49.053-29.53-64.762-49.294l-2.941-4.465v.684A239.884,239.884,0,0,1,804.9,855.167h25.334l.046.067c.014.021.032.046.053.081a.348.348,0,0,1,.035.053A346.237,346.237,0,0,0,872.6,905.155a218.262,218.262,0,0,0,25.334,21.2c4.086,2.877,8.268,5.557,12.517,7.952C931.586,946.217,954.415,951.16,975.635,939.611Z" transform="translate(-804.896 -855.166)" fill="#b8b8ff"/>
    <path id="Path_37" data-name="Path 37" d="M830.231,896.292v57.476L804.9,964.9V855.167A239.884,239.884,0,0,0,830.231,896.292Z" transform="translate(-804.896 -855.166)" fill="#3874ff"/>
    <path id="Path_38" data-name="Path 38" d="M1181.37,875.313v21.925h35.406V916.35H1181.37V926.8h-.05v14.04a92.729,92.729,0,0,1-23.545-9.625c-.577-.326-1.155-.659-1.74-1V855.167h65.184v20.146Z" transform="translate(-1050.481 -855.166)" fill="#b8b8ff"/>
    <path id="Path_39" data-name="Path 39" d="M804.9,855.162" transform="translate(-804.895 -855.162)" fill="none"/>
    <path id="Path_40" data-name="Path 40" d="M892.115,995.756q-1.51-1.9-2.941-3.781" transform="translate(-863.839 -950.848)" fill="none"/>
  </g>
</svg>
