<svg xmlns="http://www.w3.org/2000/svg" width="33.4" height="216.4" viewBox="0 0 33.4 216.4">
  <path id="bg-41_dash" d="M9,216.7H7a.7.7,0,1,1,0-1.4H9a.7.7,0,1,1,0,1.4Zm-6,0H1a.7.7,0,1,1,0-1.4H3a.7.7,0,1,1,0,1.4Zm9.963-.328a.7.7,0,0,1-.229-1.362,5.277,5.277,0,0,0,1.542-.844.7.7,0,1,1,.866,1.1,6.672,6.672,0,0,1-1.951,1.067A.7.7,0,0,1,12.963,216.372Zm3.87-4.259a.7.7,0,0,1-.681-.864A5.328,5.328,0,0,0,16.3,210v-.574a.7.7,0,1,1,1.4,0V210a6.731,6.731,0,0,1-.187,1.577A.7.7,0,0,1,16.833,212.113ZM17,206.126a.7.7,0,0,1-.7-.7v-2a.7.7,0,1,1,1.4,0v2A.7.7,0,0,1,17,206.126Zm0-6a.7.7,0,0,1-.7-.7v-2a.7.7,0,1,1,1.4,0v2A.7.7,0,0,1,17,200.126Zm0-6a.7.7,0,0,1-.7-.7v-2a.7.7,0,1,1,1.4,0v2A.7.7,0,0,1,17,194.126Zm0-6a.7.7,0,0,1-.7-.7v-2a.7.7,0,1,1,1.4,0v2A.7.7,0,0,1,17,188.126Zm0-6a.7.7,0,0,1-.7-.7v-2a.7.7,0,1,1,1.4,0v2A.7.7,0,0,1,17,182.126Zm0-6a.7.7,0,0,1-.7-.7v-2a.7.7,0,1,1,1.4,0v2A.7.7,0,0,1,17,176.126Zm0-6a.7.7,0,0,1-.7-.7v-2a.7.7,0,1,1,1.4,0v2A.7.7,0,0,1,17,170.126Zm0-6a.7.7,0,0,1-.7-.7v-2a.7.7,0,1,1,1.4,0v2A.7.7,0,0,1,17,164.126Zm0-6a.7.7,0,0,1-.7-.7v-2a.7.7,0,1,1,1.4,0v2A.7.7,0,0,1,17,158.126Zm0-6a.7.7,0,0,1-.7-.7v-2a.7.7,0,1,1,1.4,0v2A.7.7,0,0,1,17,152.126Zm0-6a.7.7,0,0,1-.7-.7v-2a.7.7,0,1,1,1.4,0v2A.7.7,0,0,1,17,146.126Zm0-6a.7.7,0,0,1-.7-.7v-2a.7.7,0,1,1,1.4,0v2A.7.7,0,0,1,17,140.126Zm0-6a.7.7,0,0,1-.7-.7v-2a.7.7,0,1,1,1.4,0v2A.7.7,0,0,1,17,134.126Zm0-6a.7.7,0,0,1-.7-.7v-2a.7.7,0,0,1,1.4,0v2A.7.7,0,0,1,17,128.126Zm0-6a.7.7,0,0,1-.7-.7v-2a.7.7,0,0,1,1.4,0v2A.7.7,0,0,1,17,122.126Zm0-6a.7.7,0,0,1-.7-.7v-2a.7.7,0,0,1,1.4,0v2A.7.7,0,0,1,17,116.126Zm0-6a.7.7,0,0,1-.7-.7v-2a.7.7,0,0,1,1.4,0v2A.7.7,0,0,1,17,110.126Zm0-6a.7.7,0,0,1-.7-.7v-2a.7.7,0,0,1,1.4,0v2A.7.7,0,0,1,17,104.126Zm0-6a.7.7,0,0,1-.7-.7v-2a.7.7,0,0,1,1.4,0v2A.7.7,0,0,1,17,98.126Zm0-6a.7.7,0,0,1-.7-.7v-2a.7.7,0,0,1,1.4,0v2A.7.7,0,0,1,17,92.126Zm0-6a.7.7,0,0,1-.7-.7v-2a.7.7,0,0,1,1.4,0v2A.7.7,0,0,1,17,86.126Zm0-6a.7.7,0,0,1-.7-.7v-2a.7.7,0,0,1,1.4,0v2A.7.7,0,0,1,17,80.126Zm0-6a.7.7,0,0,1-.7-.7v-2a.7.7,0,0,1,1.4,0v2A.7.7,0,0,1,17,74.126Zm0-6a.7.7,0,0,1-.7-.7v-2a.7.7,0,0,1,1.4,0v2A.7.7,0,0,1,17,68.126Zm0-6a.7.7,0,0,1-.7-.7v-2a.7.7,0,1,1,1.4,0v2A.7.7,0,0,1,17,62.126Zm0-6a.7.7,0,0,1-.7-.7v-2a.7.7,0,1,1,1.4,0v2A.7.7,0,0,1,17,56.126Zm0-6a.7.7,0,0,1-.7-.7v-2a.7.7,0,0,1,1.4,0v2A.7.7,0,0,1,17,50.126Zm0-6a.7.7,0,0,1-.7-.7v-2a.7.7,0,0,1,1.4,0v2A.7.7,0,0,1,17,44.126Zm0-6a.7.7,0,0,1-.7-.7v-2a.7.7,0,0,1,1.4,0v2A.7.7,0,0,1,17,38.126Zm0-6a.7.7,0,0,1-.7-.7v-2a.7.7,0,0,1,1.4,0v2A.7.7,0,0,1,17,32.126Zm0-6a.7.7,0,0,1-.7-.7v-2a.7.7,0,0,1,1.4,0v2A.7.7,0,0,1,17,26.126Zm0-6a.7.7,0,0,1-.7-.7v-2a.7.7,0,0,1,1.4,0v2A.7.7,0,0,1,17,20.126Zm0-6a.7.7,0,0,1-.7-.7v-2a.7.7,0,0,1,1.4,0v2A.7.7,0,0,1,17,14.126Zm0-6a.7.7,0,0,1-.7-.7V7a6.717,6.717,0,0,1,.228-1.737.7.7,0,1,1,1.352.362A5.317,5.317,0,0,0,17.7,7v.426A.7.7,0,0,1,17,8.126Zm2.408-5.232a.7.7,0,0,1-.42-1.26A6.667,6.667,0,0,1,20.965.615a.7.7,0,0,1,.425,1.334,5.27,5.27,0,0,0-1.562.805A.7.7,0,0,1,19.408,2.894ZM33,1.7H31.148a.7.7,0,1,1,0-1.4H33a.7.7,0,1,1,0,1.4Zm-5.852,0h-2a.7.7,0,1,1,0-1.4h2a.7.7,0,0,1,0,1.4Z" transform="translate(-0.3 -0.3)" fill="#3874ff" opacity="0.97"/>
</svg>
