<svg id="favicons-18" xmlns="http://www.w3.org/2000/svg" width="16.534" height="17.004" viewBox="0 0 16.534 17.004">
  <g id="Group_15" data-name="Group 15">
    <path id="Path_31" data-name="Path 31" d="M728.952,612.344a6.131,6.131,0,0,1,3.393-4.267,6.262,6.262,0,0,1,6.93,1.018,5.528,5.528,0,0,1,.579.63c-.16-.141-.322-.276-.491-.4a6.95,6.95,0,0,0-2.416-1.19,6.609,6.609,0,0,0-5.566,1.021c-.025.017-.058.043-.083.061-.1.07-.231.179-.324.255-.048.044-.186.16-.231.206-.07.066-.157.146-.223.216-.1.1-.192.2-.282.3l-.135.158-.129.163-.032.041a7.145,7.145,0,0,0-.642,1.017c-.05.092-.093.191-.141.284-.032.069-.056.127-.086.193-.043.1-.081.2-.122.295Z" transform="translate(-726.052 -606.733)" fill="#b8b8ff"/>
    <path id="Path_32" data-name="Path 32" d="M661.707,580.889a6.9,6.9,0,0,1-.66-4.211,7.235,7.235,0,0,1,3.373-5.042,6.843,6.843,0,0,1,4.086-1c-.15.014-.3.028-.452.049-.259.034-.523.081-.778.139a7.7,7.7,0,0,0-5.014,3.709,7.848,7.848,0,0,0-.555,6.352Z" transform="translate(-659.409 -570.618)" fill="#b8b8ff"/>
    <path id="Path_33" data-name="Path 33" d="M620.722,723.279a8.124,8.124,0,0,1-6.9-12.948c-.035.062-.1.184-.137.245-.087.161-.173.335-.252.5a8.526,8.526,0,0,0,7.294,12.2Z" transform="translate(-611.626 -707.565)" fill="#b8b8ff"/>
    <path id="Path_34" data-name="Path 34" d="M599.034,1063.729a9.182,9.182,0,0,1-10.678,3.333c-.062-.022-.337-.129-.391-.153l-.308-.134-.3-.146c-.11-.052-.262-.141-.371-.2s-.25-.148-.361-.213a9.239,9.239,0,0,1-3.23-3.428l-.077-.147-.039-.074c-.055-.1-.132-.282-.179-.374s-.087-.208-.129-.305-.081-.213-.117-.309-.074-.212-.106-.313l-.05-.157-.012-.039-.011-.04-.021-.08-.042-.159-.021-.08c-.03-.122-.061-.281-.088-.4l.053.156.052.156c.009.026.016.052.026.078.039.1.091.242.13.345s.1.247.142.339.1.214.137.3a9.787,9.787,0,0,0,2.56,3.294c.094.077.219.174.314.251l.259.19c.206.146.458.308.672.438l.279.158a9.516,9.516,0,0,0,7.9.544,9.7,9.7,0,0,0,1.8-.905,10.238,10.238,0,0,0,2.206-1.92Z" transform="translate(-582.5 -1050.615)" fill="#b8b8ff"/>
  </g>
  <g id="Group_16" data-name="Group 16" transform="translate(4.404 5.634)">
    <path id="Path_35" data-name="Path 35" d="M1031.79,855.167v4.4a14.383,14.383,0,0,1-1.507-1.277l-.162-.158v-2.967Z" transform="translate(-1025.661 -855.167)" fill="#3874ff"/>
    <path id="Path_36" data-name="Path 36" d="M816.144,860.729a6.4,6.4,0,0,1-4.294.848,5.959,5.959,0,0,1-.825-.205,9.485,9.485,0,0,1-4.266-3.247l-.194-.294v.045a15.8,15.8,0,0,1-1.669-2.709h1.669l0,0,0,.005,0,0a22.8,22.8,0,0,0,2.782,3.279,14.374,14.374,0,0,0,1.669,1.4c.269.19.545.366.825.524A4.3,4.3,0,0,0,816.144,860.729Z" transform="translate(-804.897 -855.167)" fill="#b8b8ff"/>
    <path id="Path_37" data-name="Path 37" d="M806.566,857.876v3.786l-1.669.733v-7.228A15.8,15.8,0,0,0,806.566,857.876Z" transform="translate(-804.897 -855.167)" fill="#3874ff"/>
    <path id="Path_38" data-name="Path 38" d="M1157.7,856.494v1.444h2.332V859.2H1157.7v.689h0v.925a6.105,6.105,0,0,1-1.551-.634l-.115-.066v-4.944h4.294v1.327Z" transform="translate(-1149.083 -855.167)" fill="#b8b8ff"/>
    <path id="Path_39" data-name="Path 39" d="M804.9,855.162" transform="translate(-804.895 -855.162)" fill="none"/>
    <path id="Path_40" data-name="Path 40" d="M889.368,992.224q-.1-.125-.194-.249" transform="translate(-887.505 -989.266)" fill="none"/>
  </g>
</svg>
