<svg id="msapplication-logo" xmlns="http://www.w3.org/2000/svg" width="156.28" height="160.728" viewBox="0 0 156.28 160.728">
  <g id="Group_15" data-name="Group 15">
    <path id="Path_31" data-name="Path 31" d="M728.952,653.6c3.493-17.6,15.927-32.715,32.075-40.336,21.494-10.309,48.022-6.758,65.5,9.625A52.273,52.273,0,0,1,832,628.847c-1.51-1.332-3.043-2.612-4.643-3.825a65.7,65.7,0,0,0-22.835-11.248,62.468,62.468,0,0,0-52.607,9.652c-.238.158-.552.411-.781.58-.907.665-2.183,1.693-3.059,2.412-.453.414-1.757,1.513-2.186,1.946-.66.622-1.481,1.38-2.106,2.04-.91.909-1.817,1.9-2.669,2.867l-1.272,1.5-1.219,1.542-.306.386a67.562,67.562,0,0,0-6.068,9.611c-.474.866-.883,1.8-1.329,2.682-.3.652-.527,1.2-.816,1.828-.405.905-.762,1.871-1.151,2.787Z" transform="translate(-701.542 -600.567)" fill="#b8b8ff"/>
    <path id="Path_32" data-name="Path 32" d="M668,667.706a65.167,65.167,0,0,1-6.243-39.8,68.384,68.384,0,0,1,31.878-47.659,64.682,64.682,0,0,1,38.624-9.428c-1.42.133-2.867.267-4.272.467-2.447.317-4.945.764-7.349,1.314a72.82,72.82,0,0,0-47.394,35.062c-10.365,18.28-11.868,40.206-5.244,60.042Z" transform="translate(-646.278 -570.618)" fill="#b8b8ff"/>
    <path id="Path_33" data-name="Path 33" d="M692.63,832.713c-27.5,1.813-54.03-12.6-68.549-35.854-16.762-26.514-15.853-61.621,3.283-86.528-.328.588-.963,1.74-1.3,2.32-.821,1.52-1.635,3.165-2.378,4.732-11.624,24.622-10.365,54.016,4.1,77.16,14.007,22.629,38.334,36.566,64.842,38.17Z" transform="translate(-606.653 -684.182)" fill="#b8b8ff"/>
    <path id="Path_34" data-name="Path 34" d="M738.78,1092.619c-22.232,32.359-64.263,44.812-100.927,31.509-.584-.211-3.187-1.219-3.7-1.447l-2.915-1.263-2.86-1.381c-1.043-.488-2.477-1.333-3.5-1.864-1.06-.592-2.365-1.4-3.416-2.016a87.329,87.329,0,0,1-30.532-32.406l-.729-1.391-.364-.695c-.516-.948-1.251-2.663-1.689-3.537-.425-.942-.821-1.962-1.218-2.886s-.768-2.017-1.11-2.924c-.372-.955-.7-2.008-1-2.959l-.469-1.488-.116-.372-.1-.377-.2-.753-.4-1.506-.2-.752c-.281-1.151-.577-2.651-.829-3.8l.5,1.472.488,1.472c.084.244.155.492.25.733.372.974.865,2.288,1.227,3.258.37.867.974,2.332,1.344,3.2.338.759.934,2.023,1.295,2.8a92.518,92.518,0,0,0,24.2,31.137c.89.731,2.065,1.642,2.968,2.369l2.447,1.8c1.944,1.379,4.328,2.91,6.352,4.137l2.637,1.493a89.943,89.943,0,0,0,74.714,5.144,91.741,91.741,0,0,0,17.012-8.557,96.777,96.777,0,0,0,20.853-18.149Z" transform="translate(-582.5 -968.659)" fill="#b8b8ff"/>
  </g>
  <g id="Group_16" data-name="Group 16" transform="translate(41.624 53.256)">
    <path id="Path_35" data-name="Path 35" d="M1045.894,855.167v41.608a135.957,135.957,0,0,1-14.242-12.073q-.775-.745-1.531-1.494V855.167Z" transform="translate(-987.967 -855.166)" fill="#3874ff"/>
    <path id="Path_36" data-name="Path 36" d="M911.2,907.743c-14.88,8.278-28.467,10.121-40.584,8.013a56.335,56.335,0,0,1-7.793-1.939c-16.912-5.492-30.541-18.386-40.322-30.691l-1.831-2.78v.426A149.358,149.358,0,0,1,804.9,855.167H820.67l.029.042c.009.013.02.029.033.051a.211.211,0,0,1,.022.033,215.572,215.572,0,0,0,26.3,31,135.894,135.894,0,0,0,15.773,13.2c2.544,1.791,5.147,3.46,7.793,4.951C883.776,911.856,897.989,914.934,911.2,907.743Z" transform="translate(-804.897 -855.166)" fill="#b8b8ff"/>
    <path id="Path_37" data-name="Path 37" d="M820.67,880.772v35.786l-15.773,6.93V855.167A149.358,149.358,0,0,0,820.67,880.772Z" transform="translate(-804.897 -855.166)" fill="#3874ff"/>
    <path id="Path_38" data-name="Path 38" d="M1171.81,867.71v13.651h22.044v11.9H1171.81v6.509h-.031v8.742a57.736,57.736,0,0,1-14.659-5.992c-.359-.2-.719-.411-1.083-.622V855.167h40.584V867.71Z" transform="translate(-1090.316 -855.166)" fill="#b8b8ff"/>
    <path id="Path_39" data-name="Path 39" d="M804.9,855.162" transform="translate(-804.895 -855.162)" fill="none"/>
    <path id="Path_40" data-name="Path 40" d="M891.005,994.329q-.94-1.182-1.831-2.354" transform="translate(-873.4 -966.369)" fill="none"/>
  </g>
</svg>
