<svg xmlns="http://www.w3.org/2000/svg" width="201.811" height="207.554" viewBox="0 0 201.811 207.554">
  <g id="option-logo" transform="translate(0 0)">
    <g id="Group_15" data-name="Group 15">
      <path id="Path_31" data-name="Path 31" d="M728.952,667.046c4.51-22.729,20.567-42.247,41.419-52.087,27.756-13.312,62.013-8.727,84.581,12.429a67.505,67.505,0,0,1,7.066,7.689c-1.95-1.721-3.929-3.373-6-4.939a84.84,84.84,0,0,0-29.488-14.525A80.668,80.668,0,0,0,758.6,628.077c-.308.2-.712.531-1.008.749-1.171.859-2.819,2.186-3.95,3.115-.586.534-2.268,1.954-2.823,2.513-.852.8-1.913,1.782-2.719,2.634-1.175,1.174-2.346,2.459-3.447,3.7l-1.642,1.932-1.574,1.991-.4.5a87.235,87.235,0,0,0-7.835,12.411c-.612,1.119-1.141,2.327-1.716,3.463-.389.843-.681,1.554-1.054,2.36-.523,1.169-.984,2.416-1.486,3.6Z" transform="translate(-693.556 -598.558)" fill="#b8b8ff"/>
      <path id="Path_32" data-name="Path 32" d="M670.044,695.992c-8.167-15.64-10.742-34-8.061-51.393a88.308,88.308,0,0,1,41.165-61.545,83.527,83.527,0,0,1,49.877-12.175c-1.834.172-3.7.344-5.517.6-3.159.409-6.386.987-9.49,1.7a94.036,94.036,0,0,0-61.2,45.277c-13.384,23.606-15.326,51.919-6.771,77.535Z" transform="translate(-641.999 -570.618)" fill="#b8b8ff"/>
      <path id="Path_33" data-name="Path 33" d="M716.059,868.368c-35.508,2.341-69.771-16.272-88.521-46.3-21.646-34.239-20.471-79.574,4.24-111.738-.423.759-1.243,2.247-1.673,3-1.061,1.962-2.111,4.087-3.07,6.111-15.01,31.8-13.385,69.753,5.291,99.64,18.088,29.221,49.5,47.22,83.733,49.29Z" transform="translate(-605.033 -676.564)" fill="#b8b8ff"/>
      <path id="Path_34" data-name="Path 34" d="M784.311,1102.032c-28.709,41.786-82.986,57.868-130.332,40.688-.755-.273-4.116-1.574-4.777-1.869l-3.765-1.63-3.694-1.784c-1.347-.63-3.2-1.721-4.525-2.408-1.369-.765-3.054-1.81-4.412-2.6a112.769,112.769,0,0,1-39.427-41.848l-.941-1.8-.47-.9c-.667-1.224-1.615-3.439-2.182-4.568-.549-1.217-1.06-2.534-1.573-3.727-.519-1.177-.991-2.6-1.433-3.776-.48-1.234-.907-2.593-1.293-3.821l-.605-1.921-.15-.48-.131-.486-.261-.973-.514-1.945-.256-.971c-.364-1.487-.745-3.424-1.071-4.9l.643,1.9.63,1.9c.108.315.2.635.323.947.481,1.257,1.117,2.954,1.585,4.208.479,1.119,1.258,3.012,1.735,4.138.436.98,1.206,2.612,1.672,3.614a119.468,119.468,0,0,0,31.245,40.209c1.149.944,2.667,2.121,3.832,3.059l3.16,2.32c2.51,1.781,5.589,3.758,8.2,5.342l3.405,1.928a116.147,116.147,0,0,0,96.481,6.643,118.476,118.476,0,0,0,21.968-11.05,124.975,124.975,0,0,0,26.928-23.437Z" transform="translate(-582.5 -941.957)" fill="#b8b8ff"/>
    </g>
    <g id="Group_16" data-name="Group 16" transform="translate(53.751 68.771)">
      <path id="Path_35" data-name="Path 35" d="M1050.49,855.167V908.9a175.555,175.555,0,0,1-18.391-15.591q-1-.962-1.977-1.929V855.167Z" transform="translate(-975.686 -855.166)" fill="#3874ff"/>
      <path id="Path_36" data-name="Path 36" d="M942.172,923.061c-19.215,10.69-36.76,13.069-52.408,10.348a72.764,72.764,0,0,1-10.063-2.5c-21.839-7.092-39.439-23.743-52.069-39.632l-2.365-3.59v.55A192.872,192.872,0,0,1,804.9,855.167h20.369l.037.054c.011.017.026.037.043.066a.271.271,0,0,1,.028.043,278.381,278.381,0,0,0,33.957,40.029A175.483,175.483,0,0,0,879.7,912.4c3.285,2.313,6.647,4.468,10.063,6.394C906.756,928.372,925.111,932.346,942.172,923.061Z" transform="translate(-804.896 -855.166)" fill="#b8b8ff"/>
      <path id="Path_37" data-name="Path 37" d="M825.266,888.232v46.211L804.9,943.393V855.167A192.872,192.872,0,0,0,825.266,888.232Z" transform="translate(-804.896 -855.166)" fill="#3874ff"/>
      <path id="Path_38" data-name="Path 38" d="M1176.405,871.365v17.628h28.467v15.366h-28.467v8.405h-.04v11.289a74.555,74.555,0,0,1-18.93-7.738c-.464-.262-.929-.53-1.4-.8V855.167h52.408v16.2Z" transform="translate(-1071.169 -855.166)" fill="#b8b8ff"/>
      <path id="Path_39" data-name="Path 39" d="M804.9,855.162" transform="translate(-804.895 -855.162)" fill="none"/>
      <path id="Path_40" data-name="Path 40" d="M891.539,995.015q-1.214-1.526-2.365-3.04" transform="translate(-868.805 -958.909)" fill="none"/>
    </g>
  </g>
</svg>
