<svg xmlns="http://www.w3.org/2000/svg" width="239.894" height="88.37" viewBox="0 0 239.894 88.37">
  <g id="logo-dark" transform="translate(-2628.001 219)">
    <g id="Group_4" data-name="Group 4" transform="translate(2628.001 -219)">
      <g id="Group_2" data-name="Group 2">
        <path id="Path_6" data-name="Path 6" d="M559.944,749.118h-62.69a12.855,12.855,0,0,1-12.84-12.84v-62.69a12.855,12.855,0,0,1,12.84-12.84h62.69a12.855,12.855,0,0,1,12.84,12.84v62.69A12.855,12.855,0,0,1,559.944,749.118Zm-62.69-84.594a9.074,9.074,0,0,0-9.064,9.064v62.69a9.074,9.074,0,0,0,9.064,9.064h62.69a9.074,9.074,0,0,0,9.064-9.064v-62.69a9.074,9.074,0,0,0-9.064-9.064Z" transform="translate(-484.414 -660.748)" fill="#fff"/>
      </g>
      <g id="Group_3" data-name="Group 3" transform="translate(22.451 20.151)">
        <path id="Path_7" data-name="Path 7" d="M826.272,787.667v-5.8h-10.85v10.445Z" transform="translate(-782.804 -781.869)" fill="red"/>
        <path id="Path_8" data-name="Path 8" d="M651.981,794.486v7.435H630.212V781.869h-10.85v48.069h10.85V810.985h21.768v18.953h10.85v-40.1Z" transform="translate(-619.362 -781.869)" fill="#fff"/>
      </g>
    </g>
    <text id="HARMONY_FLOW" data-name="HARMONY
FLOW" transform="translate(2718.395 -181.862)" fill="#fff" stroke="#fff" stroke-linecap="round" stroke-linejoin="round" stroke-width="0.5" font-size="25" font-family="Verdana-Bold, Verdana" font-weight="700" letter-spacing="0.025em"><tspan x="0" y="0">HARMONY</tspan><tspan x="0" y="33">FLOW</tspan></text>
    <path id="Path_17" data-name="Path 17" d="M820.391,785.367v-3.5h-4.969v6.3Z" transform="translate(2193.214 -1119.334) rotate(14)" fill="red"/>
  </g>
</svg>
