<svg xmlns="http://www.w3.org/2000/svg" width="172.56" height="177.471" viewBox="0 0 172.56 177.471">
  <g id="apple-icon" transform="translate(0 0)">
    <g id="Group_15" data-name="Group 15">
      <path id="Path_31" data-name="Path 31" d="M728.952,658.41c3.856-19.434,17.586-36.123,35.416-44.537C788.1,602.49,817.393,606.41,836.69,624.5a57.734,57.734,0,0,1,6.042,6.575c-1.667-1.471-3.36-2.884-5.126-4.223a72.541,72.541,0,0,0-25.214-12.42A68.975,68.975,0,0,0,754.3,625.089c-.263.174-.609.454-.862.641-1,.734-2.41,1.869-3.377,2.663-.5.457-1.94,1.671-2.413,2.149-.729.687-1.635,1.524-2.325,2.252-1,1-2.006,2.1-2.948,3.166l-1.4,1.652-1.346,1.7-.338.426a74.6,74.6,0,0,0-6.7,10.612c-.523.957-.975,1.99-1.467,2.961-.332.72-.582,1.329-.9,2.018-.448,1-.842,2.066-1.27,3.078Z" transform="translate(-698.687 -599.849)" fill="#b8b8ff"/>
      <path id="Path_32" data-name="Path 32" d="M668.728,677.819a71.955,71.955,0,0,1-6.893-43.944,75.508,75.508,0,0,1,35.2-52.624,71.42,71.42,0,0,1,42.648-10.411c-1.568.147-3.166.294-4.717.516-2.7.35-5.461.844-8.115,1.451a80.406,80.406,0,0,0-52.332,38.715c-11.444,20.185-13.1,44.394-5.79,66.3Z" transform="translate(-644.748 -570.618)" fill="#b8b8ff"/>
      <path id="Path_33" data-name="Path 33" d="M701.007,845.462c-30.361,2-59.659-13.914-75.69-39.589-18.508-29.276-17.5-68.04,3.625-95.542-.362.649-1.063,1.921-1.431,2.562-.907,1.678-1.805,3.495-2.625,5.225-12.835,27.187-11.445,59.643,4.524,85.2,15.466,24.986,42.327,40.376,71.6,42.146Z" transform="translate(-606.074 -681.458)" fill="#b8b8ff"/>
      <path id="Path_34" data-name="Path 34" d="M755.06,1095.985c-24.548,35.729-70.958,49.48-111.441,34.791-.645-.233-3.519-1.346-4.085-1.6l-3.219-1.394-3.158-1.525c-1.151-.539-2.735-1.472-3.869-2.059-1.17-.654-2.611-1.547-3.772-2.226a96.425,96.425,0,0,1-33.712-35.782l-.8-1.536-.4-.767c-.57-1.046-1.381-2.94-1.865-3.906-.47-1.04-.906-2.167-1.345-3.187s-.847-2.227-1.226-3.229c-.411-1.055-.775-2.217-1.105-3.267l-.518-1.643-.128-.411-.112-.416-.223-.832-.439-1.663-.219-.831c-.311-1.271-.637-2.928-.916-4.194l.55,1.625.538,1.625c.093.27.172.543.276.809.411,1.075.955,2.526,1.355,3.6.409.957,1.076,2.575,1.484,3.538.373.838,1.031,2.233,1.429,3.09a102.153,102.153,0,0,0,26.717,34.381c.983.807,2.28,1.813,3.277,2.615l2.7,1.984c2.147,1.523,4.779,3.213,7.014,4.568l2.912,1.649a99.313,99.313,0,0,0,82.5,5.68,101.309,101.309,0,0,0,18.784-9.448,106.86,106.86,0,0,0,23.025-20.04Z" transform="translate(-582.5 -959.112)" fill="#b8b8ff"/>
    </g>
    <g id="Group_16" data-name="Group 16" transform="translate(45.96 58.803)">
      <path id="Path_35" data-name="Path 35" d="M1047.537,855.167V901.11a150.11,150.11,0,0,1-15.726-13.331q-.855-.822-1.691-1.649V855.167Z" transform="translate(-983.576 -855.166)" fill="#3874ff"/>
      <path id="Path_36" data-name="Path 36" d="M922.275,913.22c-16.43,9.141-31.432,11.175-44.812,8.848a62.2,62.2,0,0,1-8.6-2.141c-18.674-6.064-33.722-20.3-44.522-33.888l-2.022-3.07v.47A164.918,164.918,0,0,1,804.9,855.167h17.417l.032.046c.01.015.022.032.037.056a.236.236,0,0,1,.024.037,238.022,238.022,0,0,0,29.035,34.227,150.056,150.056,0,0,0,17.417,14.574c2.809,1.978,5.684,3.82,8.6,5.467C891.993,917.761,907.687,921.16,922.275,913.22Z" transform="translate(-804.897 -855.166)" fill="#b8b8ff"/>
      <path id="Path_37" data-name="Path 37" d="M822.313,883.44v39.513L804.9,930.605V855.167A164.918,164.918,0,0,0,822.313,883.44Z" transform="translate(-804.897 -855.166)" fill="#3874ff"/>
      <path id="Path_38" data-name="Path 38" d="M1173.453,869.017V884.09h24.34v13.139h-24.34v7.187h-.034v9.652a63.746,63.746,0,0,1-16.186-6.617c-.4-.224-.794-.453-1.2-.687v-51.6h44.812v13.85Z" transform="translate(-1083.47 -855.166)" fill="#b8b8ff"/>
      <path id="Path_39" data-name="Path 39" d="M804.9,855.162" transform="translate(-804.895 -855.162)" fill="none"/>
      <path id="Path_40" data-name="Path 40" d="M891.2,994.575q-1.038-1.3-2.022-2.6" transform="translate(-871.757 -963.701)" fill="none"/>
    </g>
  </g>
</svg>
