<svg id="favicons-32" xmlns="http://www.w3.org/2000/svg" width="34.036" height="35.004" viewBox="0 0 34.036 35.004">
  <g id="Group_15" data-name="Group 15">
    <path id="Path_31" data-name="Path 31" d="M728.952,617.512a12.62,12.62,0,0,1,6.985-8.784,12.89,12.89,0,0,1,14.265,2.1,11.391,11.391,0,0,1,1.192,1.3c-.329-.29-.663-.569-1.011-.833a14.308,14.308,0,0,0-4.973-2.45,13.6,13.6,0,0,0-11.457,2.1c-.052.034-.12.09-.17.126-.2.145-.475.369-.666.525-.1.09-.383.329-.476.424-.144.135-.323.3-.458.444-.2.2-.4.415-.581.624l-.277.326-.266.336-.067.084a14.715,14.715,0,0,0-1.321,2.093c-.1.189-.192.392-.289.584-.066.142-.115.262-.178.4-.088.2-.166.407-.251.607Z" transform="translate(-722.982 -605.961)" fill="#b8b8ff"/>
    <path id="Path_32" data-name="Path 32" d="M662.494,591.762a14.192,14.192,0,0,1-1.36-8.667,14.894,14.894,0,0,1,6.943-10.38,14.088,14.088,0,0,1,8.412-2.053c-.309.029-.624.058-.93.1-.533.069-1.077.167-1.6.286a15.859,15.859,0,0,0-10.322,7.636,16.154,16.154,0,0,0-1.142,13.076Z" transform="translate(-657.764 -570.618)" fill="#b8b8ff"/>
    <path id="Path_33" data-name="Path 33" d="M629.728,736.984a16.725,16.725,0,0,1-14.214-26.653c-.071.128-.21.379-.282.505-.179.331-.356.689-.518,1.031a17.551,17.551,0,0,0,15.014,25.117Z" transform="translate(-611.003 -704.636)" fill="#b8b8ff"/>
    <path id="Path_34" data-name="Path 34" d="M616.536,1067.347a18.9,18.9,0,0,1-21.981,6.862c-.127-.046-.694-.266-.806-.315l-.635-.275-.623-.3c-.227-.106-.539-.29-.763-.406s-.515-.305-.744-.439a19.017,19.017,0,0,1-6.649-7.058l-.159-.3-.079-.151c-.112-.206-.272-.58-.368-.77s-.179-.427-.265-.629-.167-.439-.242-.637-.153-.437-.218-.644l-.1-.324-.025-.081-.022-.082-.044-.164-.087-.328-.043-.164c-.061-.251-.126-.577-.181-.827l.108.321.106.321c.018.053.034.107.054.16.081.212.188.5.267.71.081.189.212.508.293.7.074.165.2.441.282.61a20.15,20.15,0,0,0,5.27,6.781c.194.159.45.358.646.516l.533.391c.423.3.943.634,1.383.9l.574.325a19.588,19.588,0,0,0,16.272,1.12,19.975,19.975,0,0,0,3.7-1.864,21.078,21.078,0,0,0,4.542-3.953Z" transform="translate(-582.5 -1040.351)" fill="#b8b8ff"/>
  </g>
  <g id="Group_16" data-name="Group 16" transform="translate(9.065 11.598)">
    <path id="Path_35" data-name="Path 35" d="M1033.556,855.167v9.062a29.571,29.571,0,0,1-3.1-2.629q-.169-.162-.333-.325v-6.107Z" transform="translate(-1020.941 -855.167)" fill="#3874ff"/>
    <path id="Path_36" data-name="Path 36" d="M828.049,866.617a13.175,13.175,0,0,1-8.839,1.745,12.273,12.273,0,0,1-1.7-.422c-3.683-1.2-6.651-4-8.782-6.684l-.4-.605v.093a32.529,32.529,0,0,1-3.435-5.576h3.435l.006.009.007.011,0,.007a46.947,46.947,0,0,0,5.727,6.751,29.591,29.591,0,0,0,3.435,2.875c.554.39,1.121.753,1.7,1.078C822.076,867.513,825.171,868.183,828.049,866.617Z" transform="translate(-804.897 -855.167)" fill="#b8b8ff"/>
    <path id="Path_37" data-name="Path 37" d="M808.332,860.743v7.794l-3.435,1.509V855.167A32.529,32.529,0,0,0,808.332,860.743Z" transform="translate(-804.897 -855.167)" fill="#3874ff"/>
    <path id="Path_38" data-name="Path 38" d="M1159.471,857.9v2.973h4.8v2.591h-4.8v1.418h-.007v1.9a12.575,12.575,0,0,1-3.193-1.305l-.236-.136V855.167h8.839V857.9Z" transform="translate(-1141.723 -855.167)" fill="#b8b8ff"/>
    <path id="Path_39" data-name="Path 39" d="M804.9,855.162" transform="translate(-804.895 -855.162)" fill="none"/>
    <path id="Path_40" data-name="Path 40" d="M889.573,992.488q-.2-.257-.4-.513" transform="translate(-885.739 -986.398)" fill="none"/>
  </g>
</svg>
